<?xml version="1.0" encoding="UTF-8"?>
<svg id="Layer_2" data-name="Layer 2" xmlns="http://www.w3.org/2000/svg" viewBox="0 0 17.25 17.2">
  <defs>
    <style>
      .cls-1 {
        fill: black;
        stroke-width: 0px;
      }
    </style>
  </defs>
  <g id="Layer_2-2" data-name="Layer 2">
    <g id="Layer_1-2" data-name="Layer 1-2">
      <path class="cls-1" d="m17.25,8.6h0c0,1.1-.9,1.95-1.95,1.95h-2.75c-1.1,0-1.95.9-1.95,1.95v2.75c0,1.1-.9,1.95-1.95,1.95h0c-1.1,0-1.95-.9-1.95-1.95v-2.75c0-1.1-.9-1.95-1.95-1.95H1.95c-1.1,0-1.95-.9-1.95-1.95h0c0-1.1.9-1.95,1.95-1.95h2.75c1.1,0,1.95-.9,1.95-1.95V1.95c0-1.1.9-1.95,1.95-1.95h0c1.1,0,1.95.9,1.95,1.95v2.75c0,1.1.9,1.95,1.95,1.95h2.75c1.15,0,2,.85,2,1.95Z"/>
    </g>
  </g>
</svg>