<?xml version="1.0" encoding="UTF-8"?>
<svg id="Layer_2" data-name="Layer 2" xmlns="http://www.w3.org/2000/svg" viewBox="0 0 1041.14 787.13">
  <defs>
    <style>
      .cls-1 {
        fill: red;
        stroke-width: 0px;
      }
    </style>
  </defs>
  <g id="Layer_1-2" data-name="Layer 1">
    <g id="Layer_1-2" data-name="Layer 1-2">
      <path class="cls-1" d="m484.6,38.68h0c0,4.95-4.05,8.77-8.77,8.77h-12.37c-4.95,0-8.77,4.05-8.77,8.77v12.37c0,4.95-4.05,8.77-8.77,8.77h0c-4.95,0-8.77-4.05-8.77-8.77v-12.37c0-4.95-4.05-8.77-8.77-8.77h-12.59c-4.95,0-8.77-4.05-8.77-8.77h0c0-4.95,4.05-8.77,8.77-8.77h12.37c4.95,0,8.77-4.05,8.77-8.77v-12.37c0-4.95,4.05-8.77,8.77-8.77h0c4.95,0,8.77,4.05,8.77,8.77v12.37c0,4.95,4.05,8.77,8.77,8.77h12.37c5.17,0,8.99,3.82,8.99,8.77Z"/>
    </g>
    <g id="Layer_1-2-2" data-name="Layer 1-2">
      <path class="cls-1" d="m307.91,369.52h0c0,4.95-4.05,8.77-8.77,8.77h-12.37c-4.95,0-8.77,4.05-8.77,8.77v12.37c0,4.95-4.05,8.77-8.77,8.77h0c-4.95,0-8.77-4.05-8.77-8.77v-12.37c0-4.95-4.05-8.77-8.77-8.77h-12.59c-4.95,0-8.77-4.05-8.77-8.77h0c0-4.95,4.05-8.77,8.77-8.77h12.37c4.95,0,8.77-4.05,8.77-8.77v-12.37c0-4.95,4.05-8.77,8.77-8.77h0c4.95,0,8.77,4.05,8.77,8.77v12.37c0,4.95,4.05,8.77,8.77,8.77h12.37c5.17,0,8.99,3.82,8.99,8.77Z"/>
    </g>
    <g id="Layer_1-2-3" data-name="Layer 1-2">
      <path class="cls-1" d="m913.08,330.84h0c0,4.95-4.05,8.77-8.77,8.77h-12.37c-4.95,0-8.77,4.05-8.77,8.77v12.37c0,4.95-4.05,8.77-8.77,8.77h0c-4.95,0-8.77-4.05-8.77-8.77v-12.37c0-4.95-4.05-8.77-8.77-8.77h-12.59c-4.95,0-8.77-4.05-8.77-8.77h0c0-4.95,4.05-8.77,8.77-8.77h12.37c4.95,0,8.77-4.05,8.77-8.77v-12.37c0-4.95,4.05-8.77,8.77-8.77h0c4.95,0,8.77,4.05,8.77,8.77v12.37c0,4.95,4.05,8.77,8.77,8.77h12.37c5.17,0,8.99,3.82,8.99,8.77Z"/>
    </g>
    <g id="Layer_1-2-4" data-name="Layer 1-2">
      <path class="cls-1" d="m635.96,157.03h0c0,4.95-4.05,8.77-8.77,8.77h-12.37c-4.95,0-8.77,4.05-8.77,8.77v12.37c0,4.95-4.05,8.77-8.77,8.77h0c-4.95,0-8.77-4.05-8.77-8.77v-12.37c0-4.95-4.05-8.77-8.77-8.77h-12.59c-4.95,0-8.77-4.05-8.77-8.77h0c0-4.95,4.05-8.77,8.77-8.77h12.37c4.95,0,8.77-4.05,8.77-8.77v-12.37c0-4.95,4.05-8.77,8.77-8.77h0c4.95,0,8.77,4.05,8.77,8.77v12.37c0,4.95,4.05,8.77,8.77,8.77h12.37c5.17,0,8.99,3.82,8.99,8.77Z"/>
    </g>
    <g id="Layer_1-2-5" data-name="Layer 1-2">
      <path class="cls-1" d="m1041.14,662.32h0c0,4.95-4.05,8.77-8.77,8.77h-12.37c-4.95,0-8.77,4.05-8.77,8.77v12.37c0,4.95-4.05,8.77-8.77,8.77h0c-4.95,0-8.77-4.05-8.77-8.77v-12.37c0-4.95-4.05-8.77-8.77-8.77h-12.59c-4.95,0-8.77-4.05-8.77-8.77h0c0-4.95,4.05-8.77,8.77-8.77h12.37c4.95,0,8.77-4.05,8.77-8.77v-12.37c0-4.95,4.05-8.77,8.77-8.77h0c4.95,0,8.77,4.05,8.77,8.77v12.37c0,4.95,4.05,8.77,8.77,8.77h12.37c5.17,0,8.99,3.82,8.99,8.77Z"/>
    </g>
    <g id="Layer_1-2-6" data-name="Layer 1-2">
      <path class="cls-1" d="m282.27,748.45h0c0,4.95-4.05,8.77-8.77,8.77h-12.37c-4.95,0-8.77,4.05-8.77,8.77v12.37c0,4.95-4.05,8.77-8.77,8.77h0c-4.95,0-8.77-4.05-8.77-8.77v-12.37c0-4.95-4.05-8.77-8.77-8.77h-12.59c-4.95,0-8.77-4.05-8.77-8.77h0c0-4.95,4.05-8.77,8.77-8.77h12.37c4.95,0,8.77-4.05,8.77-8.77v-12.37c0-4.95,4.05-8.77,8.77-8.77h0c4.95,0,8.77,4.05,8.77,8.77v12.37c0,4.95,4.05,8.77,8.77,8.77h12.37c5.17,0,8.99,3.82,8.99,8.77Z"/>
    </g>
    <g id="Layer_1-2-7" data-name="Layer 1-2">
      <path class="cls-1" d="m77.58,88.23h0c0,4.95-4.05,8.77-8.77,8.77h-12.37c-4.95,0-8.77,4.05-8.77,8.77v12.37c0,4.95-4.05,8.77-8.77,8.77h0c-4.95,0-8.77-4.05-8.77-8.77v-12.37c0-4.95-4.05-8.77-8.77-8.77h-12.59c-4.95,0-8.77-4.05-8.77-8.77h0c0-4.95,4.05-8.77,8.77-8.77h12.37c4.95,0,8.77-4.05,8.77-8.77v-12.37c0-4.95,4.05-8.77,8.77-8.77h0c4.95,0,8.77,4.05,8.77,8.77v12.37c0,4.95,4.05,8.77,8.77,8.77h12.37c5.17,0,8.99,3.82,8.99,8.77Z"/>
    </g>
    <g id="Layer_1-2-8" data-name="Layer 1-2">
      <path class="cls-1" d="m1002.35,739.68h0c0,4.95-4.05,8.77-8.77,8.77h-12.37c-4.95,0-8.77,4.05-8.77,8.77v12.37c0,4.95-4.05,8.77-8.77,8.77h0c-4.95,0-8.77-4.05-8.77-8.77v-12.37c0-4.95-4.05-8.77-8.77-8.77h-12.59c-4.95,0-8.77-4.05-8.77-8.77h0c0-4.95,4.05-8.77,8.77-8.77h12.37c4.95,0,8.77-4.05,8.77-8.77v-12.37c0-4.95,4.05-8.77,8.77-8.77h0c4.95,0,8.77,4.05,8.77,8.77v12.37c0,4.95,4.05,8.77,8.77,8.77h12.37c5.17,0,8.99,3.82,8.99,8.77Z"/>
    </g>
  </g>
</svg>