<?xml version="1.0" encoding="UTF-8"?>
<svg id="Layer_2" data-name="Layer 2" xmlns="http://www.w3.org/2000/svg" viewBox="0 0 357.49 177.24">
  <defs>
    <style>
      .cls-1, .cls-2 {
        stroke-width: 0px;
      }

      .cls-2 {
        fill: #202020;
      }
    </style>
  </defs>
  <g id="can_can_illustration" data-name="can can illustration">
    <g>
      <path class="cls-2" d="m214.21,18.89c2.09,1.92,3.4,3.17,5.9,5.17.33.29.85.68,1.44,1.23.3.27.62.58.97.9l.32.29.38.38c.25.26.51.52.77.79.53.52,1.02,1.11,1.55,1.69,4.17,4.69,8.05,11.12,11.52,17.42,1.72,3.21,3.81,6.24,6.05,8.72,2.25,2.49,4.63,4.47,6.74,5.97,2.11,1.52,3.96,2.59,5.24,3.32.64.37,1.15.64,1.5.81.35.18.53.27.53.27,0,0,.74.38,2.04,1.06.65.34,1.47.7,2.4,1.14.93.45,1.99.93,3.18,1.43,4.69,2.06,11.2,4.44,17.96,6.91,3.39,1.23,6.81,2.56,10.1,3.93,1.63.71,3.25,1.39,4.78,2.14.76.37,1.54.7,2.26,1.09.71.37,1.4.73,2.08,1.09,1.9,1,3.38,1.94,4.15,2.36,1.35.89,2.47,1.49,3.57,2.03,1.07.58,2.14,1.05,3.45,1.61-.88-1.09-1.66-2-2.54-2.89-.91-.85-1.96-1.64-3.34-2.56-.78-.44-2.31-1.42-4.25-2.44-.7-.36-1.41-.74-2.13-1.12-.74-.4-1.53-.74-2.31-1.12-1.56-.77-3.2-1.45-4.86-2.17-3.33-1.39-6.79-2.73-10.19-3.96-6.79-2.48-13.23-4.83-17.85-6.86-1.16-.49-2.21-.96-3.12-1.4-.91-.44-1.72-.79-2.36-1.12-1.28-.66-2-1.03-2-1.03,0,0-.18-.09-.52-.27-.34-.17-.84-.43-1.46-.79-1.25-.7-3.03-1.74-5.04-3.19-2.02-1.44-4.27-3.32-6.4-5.67-2.13-2.36-4.08-5.17-5.77-8.32-3.49-6.33-7.43-12.91-11.78-17.8-.55-.6-1.06-1.22-1.62-1.76-.27-.28-.54-.55-.8-.82l-.4-.4-.33-.31c-.37-.34-.71-.65-1.02-.94-.62-.58-1.17-.99-1.52-1.28-2.65-2.09-4.52-2.81-7.24-3.52Z"/>
      <path class="cls-2" d="m357.37,107.25c-.25.81-.75,1.36-1.21,1.78-.97.86-2,1.29-2.86,1.75-.9.46-1.77.91-2.63,1.34-1.73.86-3.36,1.61-4.94,2.25-1.59.63-3.18,1.06-4.69,1.1-1.52.05-2.9-.42-3.82-.99-.94-.56-1.51-1.14-1.9-1.51-.37-.39-.56-.6-.56-.6,0,0-.54-.61-2.29-2.6-.86-.9-2.13-2.01-4.11-3.13-.98-.56-2.14-1.12-3.49-1.65-.67-.27-1.4-.54-2.17-.8-.39-.12-.78-.26-1.19-.39l-.63-.2-.04-.02.05.09c1.07,1.82,2.31,4.02,3.62,6.49.65,1.23,1.32,2.53,1.98,3.9.33.68.66,1.38,1.01,2.08.17.36.35.73.51,1.1.03.07.13.28.19.47.06.19.13.38.17.55.1.38.13.74.13,1.08,0,.67-.2,1.19-.54,1.61-.17.22-.4.38-.63.53-.06.04-.12.11-.18.11l-.17-.08-.33-.17-.68-.33c-.11-.06-.22-.1-.34-.18l-.41-.41c-.26-.26-.56-.65-.78-.9-.14-.17-.29-.32-.41-.49-1.07-1.36-1.96-2.84-2.81-4.3-1.68-2.94-3.13-5.93-5.01-8.36-.94-1.22-2-2.25-3.13-3.13-.6-.44-1.24-.87-1.86-1.39-.64-.52-1.22-1.18-1.66-1.89l-.29-.52c-.06-.09-.09-.2-.14-.29-.08-.19-.16-.39-.23-.57-.11-.37-.24-.72-.3-1.05-.14-.65-.17-1.19-.19-1.57-.05-1.82.34-3.16.82-4.34.49-1.17,1.11-2.2,1.91-3.37,0,.11-.03.22-.03.34.12-.1.25-.17.4-.22.35-.13.72-.16,1.06-.16.35,0,.68.05,1.01.11l.91.2c1.21.3,2.44.72,3.96,1.43.82.37,2.45,1.16,4.37,2.22.42.24.86.48,1.3.72.46.28.91.56,1.39.83.93.57,1.87,1.16,2.8,1.79,1.87,1.25,3.74,2.62,5.57,4.09,1.79,1.46,3.54,2.81,5.54,2.86,1.03.06,2.16-.1,3.36-.22,1.21-.11,2.41-.16,3.61-.14,2.41.02,4.77.28,7.04.75.58.11,1.21.28,1.82.55.6.27,1.26.66,1.75,1.36.5.7.64,1.65.39,2.47Z"/>
      <path class="cls-2" d="m221.87,28.08c-1.3-.52-2.49-.89-3.77-.98-1.28-.13-2.65-.03-4.31.37-.45.11-1.12.28-1.94.56-.41.12-.85.29-1.32.47l-.49.18-.95.39c-.64.26-1.26.56-1.89.85-1.25.61-2.5,1.25-3.73,1.94-2.48,1.38-4.93,2.85-7.48,4.28-10.21,5.73-21.81,11.16-34.19,15.56-6.18,2.22-12.56,4.18-19.01,5.85-3.23.84-6.44,1.67-9.59,1.61-3.15,0-6.1-1.21-8.38-3.31-2.28-2.09-3.85-4.9-4.5-7.9-.66-3.01-.5-6.17.25-9.13.36-1.49.89-2.92,1.54-4.29.28-.71.65-1.37,1.03-2.02l.55-.98.63-.93c1.68-2.48,3.73-4.65,5.96-6.53,2.24-1.86,4.68-3.4,7.14-4.72,2.47-1.33,5-2.4,7.52-3.26,5.03-1.78,9.98-2.69,14.58-3.33,4.6-.63,8.83-1,12.58-1.35,3.75-.34,7.01-.65,9.69-.98,5.35-.65,8.35-1.28,8.35-1.28,0,0,.75-.15,2.16-.44,1.4-.33,3.48-.8,6.07-1.59,2.59-.76,5.69-1.82,9.26-2.87,3.57-1.02,7.66-2.06,12.19-2.1,4.48-.05,9.55.91,13.53,4.16,4,3.25,6.61,8.51,10.24,13.37,3.57,4.89,7.68,9.69,12.19,14.3,4.52,4.6,9.45,9,14.6,13.24,5.16,4.23,10.5,8.31,15.93,12.3,5.52,3.94,11.33,7.36,17.17,10.49,5.81,3.1,11.47,6.23,16.35,10.1,2.45,1.92,4.61,4.03,6.59,6.32.98,1.14,1.93,2.3,2.82,3.48.45.59.89,1.18,1.32,1.78l.64.89.42.6c1.21,1.77,2.14,3.26,2.6,4.01,1.68,2.78,2.85,4.2,4.63,6.4-.54-2.77-1.11-4.65-2.8-7.51-.46-.78-1.41-2.31-2.65-4.12l-.43-.62-.65-.92c-.44-.61-.89-1.22-1.35-1.83-.92-1.22-1.9-2.41-2.91-3.59-2.03-2.35-4.35-4.62-6.88-6.59-5.06-4.01-10.85-7.2-16.67-10.3-5.78-3.1-11.54-6.49-16.93-10.34-5.37-3.94-10.71-8.03-15.82-12.21-5.1-4.2-9.97-8.55-14.43-13.08-4.44-4.54-8.48-9.25-11.98-14.05-.85-1.22-1.71-2.41-2.52-3.62-.82-1.22-1.63-2.43-2.42-3.63-1.64-2.39-3.45-4.7-5.67-6.52-2.23-1.82-4.81-3.03-7.37-3.72-2.57-.7-5.12-.94-7.53-.91-4.85.04-9.13,1.15-12.77,2.19-3.65,1.07-6.73,2.12-9.28,2.87-2.54.78-4.55,1.23-5.92,1.55-1.38.28-2.11.43-2.11.43,0,0-2.92.61-8.2,1.26-2.64.32-5.88.63-9.62.97-3.75.34-8.01.71-12.68,1.36-4.66.65-9.78,1.59-14.99,3.43-2.61.9-5.24,2.01-7.82,3.39-2.58,1.38-5.13,3-7.51,4.97-4.74,3.92-8.75,9.38-10.43,15.88-.82,3.23-1,6.72-.26,10.12.74,3.39,2.52,6.62,5.14,9.02,1.32,1.19,2.83,2.2,4.52,2.86,1.68.67,3.5.99,5.27,1.02,3.57.06,6.94-.84,10.18-1.68,6.52-1.69,12.96-3.67,19.2-5.91,12.5-4.44,24.21-9.93,34.52-15.71,2.55-1.46,5.04-2.89,7.47-4.28,1.21-.68,2.42-1.3,3.61-1.88.6-.27,1.2-.57,1.8-.81l.9-.37.46-.17c.44-.16.85-.33,1.23-.44.76-.26,1.37-.42,1.79-.52,1.52-.38,2.71-.66,3.87-.88,1.16-.26,2.28-.43,3.69-.59Z"/>
    </g>
  </g>
  <g id="Layer_5" data-name="Layer 5">
    <path class="cls-1" d="m59.49,163.18l-9.01-2.94c-1.98-.65-2.67-2-2.02-3.98l12.41-38.08c.65-1.98,2-2.67,3.98-2.02l9.01,2.94c1.98.65,2.67,2,2.02,3.98l-12.41,38.08c-.65,1.98-2,2.67-3.98,2.02Z"/>
    <path class="cls-1" d="m109.08,121.23l-5.68-.3-1.67,31.16c-.11,2.08-1.24,3.1-3.32,2.98l-9.46-.51c-2.08-.11-3.1-1.24-2.98-3.32l1.67-31.16-5.68-.31c-2.08-.11-3.1-1.24-2.99-3.32l.31-5.68c.11-2.08,1.24-3.1,3.32-2.98l27.12,1.46c2.08.11,3.1,1.24,2.99,3.32l-.31,5.68c-.11,2.08-1.24,3.1-3.32,2.98Z"/>
    <path class="cls-1" d="m61.96,79.56l-12.46,2.47c-2.05.4-3.25-.45-3.65-2.5l-7.78-39.29c-.4-2.04.44-3.31,2.49-3.71l12.39-2.45c13.08-2.59,25.75,5.46,28.24,18.04,2.49,12.58-6.16,24.85-19.23,27.44Zm-6.29-31.79l3.58,18.09c4.52-.9,7.43-5.72,6.45-10.68s-5.51-8.31-10.03-7.42Z"/>
    <path class="cls-1" d="m109.92,97.97l-7.78-2.42c-1.21-.38-2.09-1.38-2.21-2.67l-.1-1.16-11.76-3.66-.66.85c-.78,1.01-2.09,1.4-3.36,1l-7.78-2.42c-2.11-.66-2.91-1.9-2.44-3.41.17-.54.48-1.11.99-1.68l28.87-33.42c1.15-1.36,2.24-1.88,3.51-1.49s1.87,1.44,2.04,3.22l4.78,43.9c.09.76.03,1.4-.14,1.94-.47,1.51-1.84,2.07-3.95,1.42Zm-11.57-22.13l-5.25,6.24,6.03,1.88-.78-8.12Z"/>
    <path class="cls-1" d="m161.88,109.72c-.87.14-1.89-.21-3.03-.92l-23.21-14.4,2.43,14.96c.33,2.06-.55,3.29-2.61,3.62l-9.35,1.52c-2.06.33-3.29-.55-3.63-2.61l-6.52-40.09c-.38-2.31.61-3.75,2.1-3.99.87-.14,1.76.22,2.9.94l23.02,15.2.25-.04-2.56-15.71c-.33-2.06.55-3.29,2.61-3.62l9.35-1.52c2.06-.33,3.29.55,3.63,2.61l6.52,40.09c.35,2.18-.48,3.73-1.92,3.96Z"/>
    <path class="cls-1" d="m196.82,57.28l-2.91,8.17c-.46,1.28-1.13,2-2.13,2.14-1.63.22-2.9-1.14-6.09-.7-4.57.62-7.76,5.26-7.08,10.27s5,8.63,9.57,8.01c4.07-.55,4.55-2.15,6.49-2.41,1.13-.15,2.05.55,2.75,1.92l3.61,7.29c.27.6.54,1.14.61,1.64.14,1.06-.36,2.03-1.54,2.76-2.87,1.86-6.33,3.16-9.9,3.64-15.27,2.08-25.45-7.57-27.23-20.72-1.79-13.14,7.57-25.45,20.72-27.23,3.88-.53,7.83-.11,11.32,1.2,1.21.47,1.95,1.2,2.08,2.14.08.56-.03,1.15-.25,1.88Z"/>
    <path class="cls-1" d="m238.92,100.43l-25.18,7.28c-2,.58-3.33-.15-3.91-2.16l-11.12-38.48c-.58-2,.15-3.33,2.16-3.91l25.18-7.28c2-.58,3.33.15,3.91,2.16l1.58,5.46c.58,2-.15,3.33-2.16,3.91l-13.05,3.77,1.19,4.13,13.05-3.77c2-.58,3.33.15,3.91,2.16l.86,2.97c.58,2-.15,3.33-2.16,3.91l-13.05,3.77,2.4,8.31,13.05-3.77c2-.58,3.33.15,3.91,2.16l1.58,5.46c.58,2-.15,3.33-2.16,3.91Z"/>
    <path class="cls-1" d="m49.32,91.67l.46,41.83c0,1.96-.89,3.25-2.04,3.56-1.04.28-2.33-.15-3.48-1.48l-13.31-15.31-3.7,19.92c-.32,1.72-1.22,2.75-2.26,3.03-1.16.31-2.58-.35-3.56-2.05L.66,104.85c-.25-.45-.43-.86-.55-1.29-.43-1.59.36-2.78,2.43-3.34l9.39-2.54c1.65-.45,2.91.13,3.66,1.69l4.51,9.64,1.51-12.78c.17-1.55,1.15-2.54,2.12-2.8s2.32.09,3.26,1.41l7.62,10.24-.97-10.6c-.14-1.73.66-2.86,2.31-3.31l9.39-2.54c2.07-.56,3.36.07,3.8,1.72.1.37.15.81.16,1.33Z"/>
    <path class="cls-1" d="m138.04,176.89l-8.75-3.64c-1.92-.8-2.5-2.2-1.7-4.13l6.72-16.15-8.81-3.67-6.72,16.15c-.8,1.92-2.21,2.5-4.13,1.7l-8.75-3.64c-1.92-.8-2.5-2.2-1.7-4.13l15.39-36.98c.8-1.92,2.21-2.5,4.13-1.7l8.75,3.64c1.92.8,2.5,2.21,1.7,4.13l-5.05,12.13,8.81,3.67,5.05-12.13c.8-1.92,2.21-2.5,4.13-1.7l8.75,3.64c1.92.8,2.5,2.21,1.7,4.13l-15.39,36.98c-.8,1.92-2.21,2.5-4.13,1.7Z"/>
    <path class="cls-1" d="m249.5,155.54l-9.22,2.18c-2.03.48-3.32-.32-3.8-2.35l-2.39-10.15-2.47,5.19c-.57,1.17-1.25,1.85-2.05,2.04s-1.71-.12-2.75-.91l-4.53-3.54,2.39,10.15c.48,2.03-.32,3.32-2.35,3.8l-9.22,2.18c-2.03.48-3.32-.32-3.8-2.35l-9.31-39.47c-.54-2.27.39-3.86,1.86-4.2.86-.2,1.9.07,3.07.9l20.28,14.69,11.45-22.17c.68-1.26,1.54-1.99,2.4-2.19,1.48-.35,2.95.67,3.49,2.94l9.31,39.47c.48,2.03-.32,3.32-2.35,3.8Z"/>
    <path class="cls-1" d="m277.06,141.7l-25.19-7.27c-2-.58-2.74-1.91-2.16-3.91l11.1-38.48c.58-2,1.91-2.74,3.91-2.16l25.19,7.27c2,.58,2.74,1.91,2.16,3.91l-1.58,5.46c-.58,2-1.91,2.74-3.91,2.16l-13.05-3.76-1.19,4.13,13.05,3.76c2,.58,2.74,1.91,2.16,3.91l-.86,2.97c-.58,2-1.91,2.74-3.91,2.16l-13.05-3.76-2.4,8.32,13.05,3.76c2,.58,2.74,1.91,2.16,3.91l-1.58,5.46c-.58,2-1.91,2.74-3.91,2.16Z"/>
  </g>
</svg>