<?xml version="1.0" encoding="UTF-8"?>
<svg id="Layer_2" data-name="Layer 2" xmlns="http://www.w3.org/2000/svg" viewBox="0 0 40 40" width="20" height="20">
  <defs>
    <style>
      .cls-1 {
        fill: red;
        stroke-width: 0px;
      }
    </style>
  </defs>
  <g id="Layer_1-2" data-name="Layer 1">
    <path class="cls-1" d="m34.5,17.2h0c0,2.2-1.8,3.9-3.9,3.9h-5.5c-2.2,0-3.9,1.8-3.9,3.9v5.5c0,2.2-1.8,3.9-3.9,3.9h0c-2.2,0-3.9-1.8-3.9-3.9v-5.5c0-2.2-1.8-3.9-3.9-3.9H3.9c-2.2,0-3.9-1.8-3.9-3.9h0c0-2.2,1.8-3.9,3.9-3.9h5.5c2.2,0,3.9-1.8,3.9-3.9V3.9c0-2.2,1.8-3.9,3.9-3.9h0c2.2,0,3.9,1.8,3.9,3.9v5.5c0,2.2,1.8,3.9,3.9,3.9h5.5c2.3,0,4,1.7,4,3.9Z"/>
  </g>
</svg>