<?xml version="1.0" encoding="UTF-8"?>
<svg id="Layer_2" data-name="Layer 2" xmlns="http://www.w3.org/2000/svg" viewBox="0 0 50.54 50.65">
  <defs>
    <style>
      .cls-1 {
        stroke-width: 0px;
      }
    </style>
  </defs>
  <g id="Layer_1-2" data-name="Layer 1">
    <path class="cls-1" d="m45.26,1c2.58,0,4.11.82,4.27,5.03.18,4.71-1.75,9.96-5.43,14.79-1.82,2.39-3.62,4.14-5.49,5.34-2.06,1.32-4.5,2.17-6.87,3-3.53,1.23-7.18,2.51-9.82,5.35-1.68,1.81-2.73,4.02-3.74,6.17-.97,2.06-1.89,4.01-3.32,5.58-1.93,2.13-4.85,3.4-7.81,3.4-.72,0-1.43-.08-2.12-.23-.92-.2-1.62-.49-2.14-.89-1.01-.77-1.65-2.19-1.76-3.9-.18-2.82.95-5.92,3.36-9.23.91-1.25,1.94-2.46,2.93-3.64,1.28-1.52,2.61-3.08,3.74-4.79,1.23-1.85,2.23-3.85,3.2-5.78.87-1.74,1.77-3.55,2.83-5.19,4.91-7.65,14.14-13.02,25.34-14.76,1.14-.18,2.07-.26,2.84-.26m0-1c-.89,0-1.89.1-2.99.27-10.14,1.57-20.34,6.34-26.03,15.2-2.25,3.51-3.71,7.48-6.02,10.95-1.98,2.97-4.55,5.51-6.65,8.39C1.47,37.71-.21,41.14.02,44.7c.11,1.75.76,3.57,2.15,4.63.74.56,1.63.88,2.53,1.07.77.17,1.55.25,2.33.25,3.19,0,6.4-1.35,8.55-3.72,3.08-3.39,3.92-8.38,7.04-11.74,4.22-4.53,11.29-4.85,16.5-8.2,2.26-1.45,4.12-3.44,5.75-5.57,3.32-4.35,5.85-9.86,5.64-15.43-.17-4.58-1.97-5.99-5.27-5.99h0Z"/>
  </g>
</svg>