<?xml version="1.0" encoding="UTF-8"?>
<svg id="Layer_2" data-name="Layer 2" xmlns="http://www.w3.org/2000/svg" viewBox="0 0 347.27 161.95">
  <defs>
    <style>
      .cls-1 {
        font-family: ABCReproVariable-Black, 'ABC Repro Variable Unlicensed Trial';
        font-size: 29px;
        font-variation-settings: 'wght' 900, 'slnt' 0;
        font-weight: 800;
      }

      .cls-1, .cls-2 {
        fill: #69c;
      }

      .cls-2 {
        font-family: ABCReproVariable-Screen, 'ABC Repro Variable Unlicensed Trial';
        font-size: 24px;
        font-variation-settings: 'wght' 350, 'slnt' 0;
      }

      .cls-3 {
        letter-spacing: 0em;
      }

      .cls-4 {
        letter-spacing: -.01em;
      }

      .cls-5 {
        letter-spacing: 0em;
      }

      .cls-6 {
        fill: #dc143c;
        stroke-width: 0px;
      }
    </style>
  </defs>
  <g id="Layer_1-2" data-name="Layer 1">
    <path class="cls-6" d="m213.45,52.72c14.29,0,28.53,2.01,42.35,5.98,9.78,2.81,19.78,7.02,31.48,13.26,2.18,1.16,4.42,2.26,6.8,3.42.8.39,1.61.79,2.43,1.19,8.65,4.28,17.45,9.11,21.7,16.99,2.51,4.65,3.82,10.91,3.5,16.73-.35,6.33-2.56,11.49-6.24,14.52-12.58,10.35-23.53,17.4-33.47,21.57-13.41,5.62-27.74,8.46-42.6,8.46-19.76,0-40.87-4.86-64.55-14.87-6.87-2.9-14.15-3.99-21.19-5.03-6.21-.92-12.82-1.83-19.24-1.83-8.31,0-15.18,1.52-21.01,4.65-1.37.74-2.67,1.56-3.92,2.35-1.78,1.13-3.46,2.19-5.23,2.95-3.89,1.67-8.33,1.89-12.16,1.89-.98,0-1.96-.02-2.93-.04-11.76-.26-24.09-1.18-34.64-6.14-11.2-5.27-18.92-15.17-19.67-25.23-.58-7.73,3.06-19.06,14.99-27.67,9.14-6.6,20.4-9.93,32.1-13.04,1.74-.46,3.48-.69,5.33-.69,3.59,0,7.05.85,10.71,1.75,3.98.98,8.1,1.99,12.71,1.99,1.92,0,3.75-.17,5.6-.53,3.4-.65,6.57-1.74,9.79-2.89,23.66-8.47,42.85-13.96,60.4-17.27,8.78-1.65,17.86-2.49,27-2.49m0-3c-9.25,0-18.48.84-27.55,2.54-20.67,3.89-41.21,10.35-60.85,17.39-3.06,1.1-6.15,2.16-9.35,2.77-1.74.33-3.41.47-5.04.47-8.39,0-15.42-3.74-23.42-3.74-1.97,0-3.99.23-6.1.79-11.58,3.08-23.36,6.5-33.08,13.51-9.72,7.01-17.12,18.38-16.22,30.33.91,12.2,10.31,22.51,21.38,27.72,11.07,5.21,23.62,6.16,35.85,6.42.99.02,1.99.04,3,.04,4.57,0,9.17-.35,13.34-2.14,3.32-1.43,6.21-3.7,9.39-5.41,6.02-3.24,12.73-4.3,19.6-4.3,6.25,0,12.65.88,18.8,1.79,6.95,1.03,13.99,2.09,20.47,4.83,21.28,9,43.4,15.11,65.71,15.11,14.56,0,29.2-2.6,43.76-8.7,12.12-5.08,24.14-13.73,34.22-22.02,9.52-7.83,8.88-24.97,3.48-34.99-4.7-8.71-13.98-13.79-23.01-18.25-3.15-1.56-6.26-3.04-9.14-4.57-10.34-5.51-20.77-10.25-32.06-13.5-13.98-4.02-28.59-6.1-43.18-6.1h0Z"/>
    <text class="cls-2" transform="translate(20.82 113.71) rotate(-83.94)"><tspan x="0" y="0">7</tspan></text>
    <text class="cls-2" transform="translate(22.33 102.37) rotate(-69.6)"><tspan x="0" y="0"> </tspan></text>
    <text class="cls-2" transform="translate(23.58 97.16) rotate(-55.39)"><tspan x="0" y="0">S</tspan></text>
    <text class="cls-2" transform="translate(31.85 85.22) rotate(-39.11)"><tspan x="0" y="0">e</tspan></text>
    <text class="cls-2" transform="translate(41.88 77.01) rotate(-26.43)"><tspan x="0" y="0">p</tspan></text>
    <text class="cls-2" transform="translate(55.1 70.68) rotate(-19.63)"><tspan x="0" y="0">t</tspan></text>
    <text class="cls-2" transform="translate(62.74 67.91) rotate(-15.95)"><tspan x="0" y="0">e</tspan></text>
    <text class="cls-2" transform="translate(74.63 62.8) rotate(2.86)"><tspan x="0" y="0">m</tspan></text>
    <text class="cls-2" transform="translate(94.29 65.34) rotate(10)"><tspan x="0" y="0">b</tspan></text>
    <text class="cls-2" transform="translate(114.32 67.23) rotate(-16.8)"><tspan x="0" y="0">e</tspan></text>
    <text class="cls-2" transform="translate(127.79 62.82) rotate(-19.17)"><tspan x="0" y="0">r</tspan></text>
    <text class="cls-2" transform="translate(135.4 60.18) rotate(-18.61)"><tspan x="0" y="0"> </tspan></text>
    <text class="cls-2" transform="translate(141.18 58.2) rotate(-17.65)"><tspan x="0" y="0">2</tspan></text>
    <text class="cls-2" transform="translate(153.91 54.12) rotate(-15.92)"><tspan x="0" y="0">0</tspan></text>
    <text class="cls-2" transform="translate(169.09 49.8) rotate(-13.8)"><tspan x="0" y="0">2</tspan></text>
    <text class="cls-2" transform="translate(182.02 46.6) rotate(-11.39)"><tspan x="0" y="0">3</tspan></text>
    <text class="cls-1" transform="translate(106.57 112.39)"><tspan class="cls-4" x="0" y="0">M</tspan><tspan class="cls-5" x="29.12" y="0">a</tspan><tspan class="cls-3" x="48.89" y="0">r</tspan><tspan x="62" y="0">ching</tspan></text>
  </g>
</svg>