<?xml version="1.0" encoding="UTF-8"?>
<svg id="Layer_2" data-name="Layer 2" xmlns="http://www.w3.org/2000/svg" viewBox="0 0 347.27 161.17">
  <defs>
    <style>
      .cls-1 {
        letter-spacing: 0em;
      }

      .cls-2 {
        letter-spacing: -.02em;
      }

      .cls-3 {
        font-family: ABCReproVariable-Black, 'ABC Repro Variable Unlicensed Trial';
        font-size: 29px;
        font-variation-settings: 'wght' 900, 'slnt' 0;
        font-weight: 800;
      }

      .cls-3, .cls-4 {
        fill: #69c;
      }

      .cls-5 {
        letter-spacing: -.02em;
      }

      .cls-6 {
        letter-spacing: -.03em;
      }

      .cls-7 {
        letter-spacing: -.02em;
      }

      .cls-4 {
        font-family: ABCReproVariable-Screen, 'ABC Repro Variable Unlicensed Trial';
        font-size: 24px;
        font-variation-settings: 'wght' 350, 'slnt' 0;
      }

      .cls-8 {
        letter-spacing: 0em;
      }

      .cls-9 {
        letter-spacing: 0em;
      }

      .cls-10 {
        letter-spacing: 0em;
      }

      .cls-11 {
        letter-spacing: -.01em;
      }

      .cls-12 {
        letter-spacing: -.01em;
      }

      .cls-13 {
        letter-spacing: 0em;
      }

      .cls-14 {
        fill: #dc143c;
        stroke-width: 0px;
      }
    </style>
  </defs>
  <g id="Layer_1-2" data-name="Layer 1">
    <path class="cls-14" d="m213.45,51.94c14.29,0,28.53,2.01,42.35,5.98,9.78,2.81,19.78,7.02,31.48,13.26,2.18,1.16,4.42,2.26,6.79,3.42.81.39,1.62.79,2.43,1.19,8.65,4.28,17.45,9.11,21.7,16.99,2.51,4.65,3.82,10.91,3.5,16.73-.35,6.33-2.56,11.49-6.24,14.52-12.58,10.35-23.53,17.4-33.47,21.57-13.41,5.62-27.74,8.46-42.6,8.46-19.76,0-40.87-4.86-64.55-14.87-6.86-2.9-14.15-3.99-21.19-5.03-6.21-.92-12.82-1.83-19.24-1.83-8.31,0-15.18,1.52-21.02,4.65-1.37.74-2.67,1.56-3.92,2.35-1.78,1.13-3.46,2.19-5.23,2.95-3.89,1.67-8.33,1.89-12.16,1.89-.98,0-1.96-.02-2.93-.04-11.76-.26-24.09-1.18-34.64-6.14-11.2-5.27-18.92-15.17-19.67-25.23-.58-7.73,3.06-19.06,14.99-27.67,9.14-6.6,20.4-9.93,32.1-13.04,1.74-.46,3.48-.69,5.33-.69,3.59,0,7.05.85,10.71,1.75,3.98.98,8.1,1.99,12.71,1.99,1.92,0,3.75-.17,5.6-.53,3.4-.65,6.57-1.74,9.79-2.89,23.66-8.47,42.85-13.96,60.4-17.27,8.78-1.65,17.86-2.49,27-2.49m0-3c-9.25,0-18.48.84-27.55,2.54-20.67,3.89-41.21,10.35-60.85,17.39-3.06,1.1-6.15,2.16-9.35,2.77-1.74.33-3.41.47-5.04.47-8.39,0-15.42-3.74-23.42-3.74-1.97,0-3.99.23-6.1.79-11.58,3.08-23.36,6.5-33.08,13.51-9.72,7.01-17.12,18.38-16.22,30.33.91,12.2,10.31,22.51,21.38,27.72,11.07,5.21,23.62,6.16,35.85,6.42.99.02,1.99.04,3,.04,4.57,0,9.17-.35,13.34-2.14,3.32-1.43,6.21-3.7,9.39-5.41,6.02-3.24,12.73-4.3,19.6-4.3,6.25,0,12.65.88,18.8,1.79,6.95,1.03,13.99,2.09,20.47,4.83,21.28,9,43.4,15.11,65.71,15.11,14.56,0,29.2-2.6,43.76-8.7,12.12-5.08,24.14-13.73,34.22-22.02,9.52-7.83,8.88-24.97,3.48-34.99-4.7-8.71-13.98-13.79-23.01-18.25-3.15-1.56-6.26-3.04-9.14-4.57-10.34-5.51-20.77-10.25-32.06-13.5-13.98-4.02-28.59-6.1-43.18-6.1h0Z"/>
    <text class="cls-4" transform="translate(21.03 112.8) rotate(-85.9)"><tspan x="0" y="0">1</tspan></text>
    <text class="cls-4" transform="translate(21.83 103.66) rotate(-73.08)"><tspan x="0" y="0"> </tspan></text>
    <text class="cls-4" transform="translate(22.71 98.43) rotate(-58.28)"><tspan x="0" y="0">S</tspan></text>
    <text class="cls-4" transform="translate(30.37 86.1) rotate(-41.64)"><tspan x="0" y="0">e</tspan></text>
    <text class="cls-4" transform="translate(39.98 77.46) rotate(-28.16)"><tspan x="0" y="0">p</tspan></text>
    <text class="cls-4" transform="translate(52.98 70.77) rotate(-20.76)"><tspan x="0" y="0">t</tspan></text>
    <text class="cls-4" transform="translate(60.52 67.84) rotate(-16.53)"><tspan x="0" y="0">e</tspan></text>
    <text class="cls-4" transform="translate(72.51 62.68) rotate(-1.16)"><tspan x="0" y="0">m</tspan></text>
    <text class="cls-4" transform="translate(91.59 63.66) rotate(12.49)"><tspan x="0" y="0">b</tspan></text>
    <text class="cls-4" transform="translate(111.53 66.97) rotate(-14.26)"><tspan x="0" y="0">e</tspan></text>
    <text class="cls-4" transform="translate(125.57 62.83) rotate(-19.3)"><tspan x="0" y="0">r</tspan></text>
    <text class="cls-4" transform="translate(133.16 60.17) rotate(-18.82)"><tspan x="0" y="0"> </tspan></text>
    <text class="cls-4" transform="translate(138.92 58.17) rotate(-17.9)"><tspan x="0" y="0">2</tspan></text>
    <text class="cls-4" transform="translate(151.67 54.03) rotate(-16.23)"><tspan x="0" y="0">0</tspan></text>
    <text class="cls-4" transform="translate(166.82 49.63) rotate(-14.17)"><tspan x="0" y="0">2</tspan></text>
    <text class="cls-4" transform="translate(179.75 46.34) rotate(-11.83)"><tspan x="0" y="0">3</tspan></text>
    <text class="cls-3" transform="translate(84.75 99.71)"><tspan class="cls-10" x="0" y="0">I</tspan><tspan class="cls-9" x="9.8" y="0">f</tspan><tspan class="cls-6" x="21.92" y="0"> </tspan><tspan x="27.46" y="0">Th</tspan><tspan class="cls-5" x="66.12" y="0">e</tspan><tspan class="cls-2" x="83.95" y="0">y</tspan><tspan x="101.21" y="0"> </tspan><tspan class="cls-8" x="107.53" y="0">C</tspan><tspan x="131.25" y="0">ou</tspan><tspan class="cls-13" x="169.65" y="0">l</tspan><tspan x="179.31" y="0">d </tspan><tspan class="cls-1" x="6.58" y="27">S</tspan><tspan x="27.29" y="27">ee </tspan><tspan class="cls-12" x="70.32" y="27">M</tspan><tspan x="99.44" y="27">e </tspan><tspan class="cls-11" x="124.12" y="27">N</tspan><tspan class="cls-7" x="147.15" y="27">o</tspan><tspan class="cls-13" x="166.11" y="27">w</tspan></text>
  </g>
</svg>