<?xml version="1.0" encoding="UTF-8"?>
<svg id="Layer_2" data-name="Layer 2" xmlns="http://www.w3.org/2000/svg" viewBox="0 0 1038.66 679.9">
  <defs>
    <style>
      .cls-1 {
        fill: red;
        stroke-width: 0px;
      }
    </style>
  </defs>
  <g id="Layer_2-2" data-name="Layer 2">
    <g id="Layer_1-2" data-name="Layer 1-2">
      <path class="cls-1" d="m370.63,112.55h0c0,4.95-4.05,8.77-8.77,8.77h-12.37c-4.95,0-8.77,4.05-8.77,8.77v12.37c0,4.95-4.05,8.77-8.77,8.77h0c-4.95,0-8.77-4.05-8.77-8.77v-12.37c0-4.95-4.05-8.77-8.77-8.77h-12.59c-4.95,0-8.77-4.05-8.77-8.77h0c0-4.95,4.05-8.77,8.77-8.77h12.37c4.95,0,8.77-4.05,8.77-8.77v-12.37c0-4.95,4.05-8.77,8.77-8.77h0c4.95,0,8.77,4.05,8.77,8.77v12.37c0,4.95,4.05,8.77,8.77,8.77h12.37c5.17,0,8.99,3.82,8.99,8.77Z"/>
    </g>
    <g id="Layer_1-2-2" data-name="Layer 1-2-2">
      <path class="cls-1" d="m77.58,164.65h0c0,4.95-4.05,8.77-8.77,8.77h-12.37c-4.95,0-8.77,4.05-8.77,8.77v12.37c0,4.95-4.05,8.77-8.77,8.77h0c-4.95,0-8.77-4.05-8.77-8.77v-12.37c0-4.95-4.05-8.77-8.77-8.77h-12.59c-4.95,0-8.77-4.05-8.77-8.77h0c0-4.95,4.05-8.77,8.77-8.77h12.37c4.95,0,8.77-4.05,8.77-8.77v-12.37c0-4.95,4.05-8.77,8.77-8.77h0c4.95,0,8.77,4.05,8.77,8.77v12.37c0,4.95,4.05,8.77,8.77,8.77h12.37c5.17,0,8.99,3.82,8.99,8.77Z"/>
    </g>
    <g id="Layer_1-2-3" data-name="Layer 1-2-3">
      <path class="cls-1" d="m187.56,403.63h0c0,4.95-4.05,8.77-8.77,8.77h-12.37c-4.95,0-8.77,4.05-8.77,8.77v12.37c0,4.95-4.05,8.77-8.77,8.77h0c-4.95,0-8.77-4.05-8.77-8.77v-12.37c0-4.95-4.05-8.77-8.77-8.77h-12.59c-4.95,0-8.77-4.05-8.77-8.77h0c0-4.95,4.05-8.77,8.77-8.77h12.37c4.95,0,8.77-4.05,8.77-8.77v-12.37c0-4.95,4.05-8.77,8.77-8.77h0c4.95,0,8.77,4.05,8.77,8.77v12.37c0,4.95,4.05,8.77,8.77,8.77h12.37c5.17,0,8.99,3.82,8.99,8.77Z"/>
    </g>
    <g id="Layer_1-2-4" data-name="Layer 1-2-4">
      <path class="cls-1" d="m918.5,479.06h0c0,4.95-4.05,8.77-8.77,8.77h-12.37c-4.95,0-8.77,4.05-8.77,8.77v12.37c0,4.95-4.05,8.77-8.77,8.77h0c-4.95,0-8.77-4.05-8.77-8.77v-12.37c0-4.95-4.05-8.77-8.77-8.77h-12.59c-4.95,0-8.77-4.05-8.77-8.77h0c0-4.95,4.05-8.77,8.77-8.77h12.37c4.95,0,8.77-4.05,8.77-8.77v-12.37c0-4.95,4.05-8.77,8.77-8.77h0c4.95,0,8.77,4.05,8.77,8.77v12.37c0,4.95,4.05,8.77,8.77,8.77h12.37c5.17,0,8.99,3.82,8.99,8.77Z"/>
    </g>
    <g id="Layer_1-2-5" data-name="Layer 1-2-5">
      <path class="cls-1" d="m466.62,641.22h0c0,4.95-4.05,8.77-8.77,8.77h-12.37c-4.95,0-8.77,4.05-8.77,8.77v12.37c0,4.95-4.05,8.77-8.77,8.77h0c-4.95,0-8.77-4.05-8.77-8.77v-12.37c0-4.95-4.05-8.77-8.77-8.77h-12.59c-4.95,0-8.77-4.05-8.77-8.77h0c0-4.95,4.05-8.77,8.77-8.77h12.37c4.95,0,8.77-4.05,8.77-8.77v-12.37c0-4.95,4.05-8.77,8.77-8.77h0c4.95,0,8.77,4.05,8.77,8.77v12.37c0,4.95,4.05,8.77,8.77,8.77h12.37c5.17,0,8.99,3.82,8.99,8.77h0Z"/>
    </g>
    <g id="Layer_1-2-6" data-name="Layer 1-2-6">
      <path class="cls-1" d="m454.61,189.99h0c0,4.95-4.05,8.77-8.77,8.77h-12.37c-4.95,0-8.77,4.05-8.77,8.77v12.37c0,4.95-4.05,8.77-8.77,8.77h0c-4.95,0-8.77-4.05-8.77-8.77v-12.37c0-4.95-4.05-8.77-8.77-8.77h-12.59c-4.95,0-8.77-4.05-8.77-8.77h0c0-4.95,4.05-8.77,8.77-8.77h12.37c4.95,0,8.77-4.05,8.77-8.77v-12.37c0-4.95,4.05-8.77,8.77-8.77h0c4.95,0,8.77,4.05,8.77,8.77v12.37c0,4.95,4.05,8.77,8.77,8.77h12.37c5.17,0,8.99,3.82,8.99,8.77Z"/>
    </g>
    <g id="Layer_1-2-7" data-name="Layer 1-2-7">
      <path class="cls-1" d="m1038.66,290.76h0c0,4.95-4.05,8.77-8.77,8.77h-12.37c-4.95,0-8.77,4.05-8.77,8.77v12.37c0,4.95-4.05,8.77-8.77,8.77h0c-4.95,0-8.77-4.05-8.77-8.77v-12.37c0-4.95-4.05-8.77-8.77-8.77h-12.59c-4.95,0-8.77-4.05-8.77-8.77h0c0-4.95,4.05-8.77,8.77-8.77h12.37c4.95,0,8.77-4.05,8.77-8.77v-12.37c0-4.95,4.05-8.77,8.77-8.77h0c4.95,0,8.77,4.05,8.77,8.77v12.37c0,4.95,4.05,8.77,8.77,8.77h12.37c5.17,0,8.99,3.82,8.99,8.77Z"/>
    </g>
    <g id="Layer_1-2-8" data-name="Layer 1-2-8">
      <path class="cls-1" d="m785.07,38.68h0c0,4.95-4.05,8.77-8.77,8.77h-12.37c-4.95,0-8.77,4.05-8.77,8.77v12.37c0,4.95-4.05,8.77-8.77,8.77h0c-4.95,0-8.77-4.05-8.77-8.77v-12.37c0-4.95-4.05-8.77-8.77-8.77h-12.59c-4.95,0-8.77-4.05-8.77-8.77h0c0-4.95,4.05-8.77,8.77-8.77h12.37c4.95,0,8.77-4.05,8.77-8.77v-12.37c0-4.95,4.05-8.77,8.77-8.77h0c4.95,0,8.77,4.05,8.77,8.77v12.37c0,4.95,4.05,8.77,8.77,8.77h12.37c5.17,0,8.99,3.82,8.99,8.77Z"/>
    </g>
  </g>
</svg>