<?xml version="1.0" encoding="utf-8"?>
<!-- Generator: Adobe Illustrator 28.0.0, SVG Export Plug-In . SVG Version: 6.00 Build 0)  -->
<svg version="1.1" id="Layer_1" xmlns="http://www.w3.org/2000/svg" xmlns:xlink="http://www.w3.org/1999/xlink" x="0px" y="0px"
	 viewBox="0 0 1224 792" style="enable-background:new 0 0 1224 792;" xml:space="preserve">
<style type="text/css">
	.st0{display:none;}
	
		.st1{display:inline;fill:none;stroke:#73699B;stroke-width:12;stroke-linecap:round;stroke-linejoin:round;stroke-dasharray:0,0,1.02,300;}
	.st2{fill:#FF0000;}
</style>
<g id="Layer_3" class="st0">
	<path class="st1" d="M454.2,720.4c-0.1,0.1-0.3,0.2-0.4,0.3c-0.1-0.1-0.3-0.2-0.4-0.3l-97.7-28.8c0.1-0.1,0.2-0.3,0.3-0.4l19.7-27
		c0.1-0.1,0.2-0.3,0.3-0.4c0.1,0.1,0.2,0.2,0.4,0.3l67.4-23.6c8.4-10.5,20.8-20.9,16.2-31.7c-2.5-5.9-10-11-13.7-16.7
		c-3-4.7-3.4-9.7-3.8-14.7c-0.9-10.9-1.8-21.8-2.7-32.7c-0.5-6.1,2.2-12.1,7.2-17.6c2.9-3.2,7.1-6.5,13.8-7.2
		c8.1-0.9,16.1,3,16.5,7.3c0.5,4.2-5.1,8.2-12.4,10.2s-15.7,2.5-24,2.5c-7.8,0-15.7-0.5-22.7-2.3c-6.9-1.8-12.7-5.2-13.6-9.1
		c-0.6-2.6,2.5-5.8,7.5-5.5c2.2,0.2,4,1,5.6,1.8c8.9,4.6,17.4,11.3,11.8,17c-4.9,5-17.6,6.3-28.5,6.9c-5.5,0.3-12.1,0.4-15.5-1.9
		c-4.4-3,1.7-7.6,8.9-8.2s14.2,1.4,20.6,3.3c10.8,3.2,21.6,6.4,32.3,9.7c7.7,2.3,15.7,4.7,24.6,4.9s18.7-2.2,20.8-6.7
		c2-4.4-4.7-8.9-12.9-10.5s-17.4-1-26-0.1s-17.3,2.2-26.1,1.9c-12.4-0.4-23.4-3.9-33.9-7.2c-10.1-3.2-20.2-6.5-30.3-9.7
		c-17-5.4-35.4-11.8-40.4-21.7c-0.6-1.3-1-2.7,0.1-3.9c1.7-1.7,6.2-2.3,9.9-1.8s6.7,1.8,9.5,3.1c27,12.2,52.6,25.3,76.5,39.1
		c2.5,1.4,5,2.9,8.4,3.6c0.9,0.2,1.9,0.3,2.9,0.4l9.4-63.7c-0.1,0.1-0.2,0.3-0.3,0.4c-0.1-0.1-0.2-0.3-0.2-0.4l-4,20.3
		c0.2,0,0.3,0,0.5-0.1c0,0.2,0.1,0.3,0.1,0.5l-39.7,3.9c-0.2,0-0.3,0-0.5,0.1c0.1-0.1,0.3-0.1,0.5-0.2l-0.7-24.7
		c-0.1-0.1-0.3-0.2-0.4-0.2c0.2,0,0.3,0,0.5,0l-9.4-13.8c-3.6,0-7.2,0.1-10.7,0.3c-20.5,1.4-40,6.6-54,14.4
		c-14.2,7.9-22.5,18.1-28.3,28.5c-4.8,8.6-8,17.4-8.5,26.3c-2,37.5,48.9,73.3,117.1,86.8c12.4,2.5,25.4,4.3,38.6,4.6
		c12.9,0.3,25.8-0.9,38.1-2.9c14.2-2.3,27.8-5.7,40.1-10c36.4-12.8,60.3-33.7,71-55.6c10.7-22,9.2-45.1,2.2-67.5
		c-2.6-8.5-6.2-17.1-15.4-24.3c-15.9-12.4-47.9-18.2-76.1-14.9c-5.3,0.6-10.5,1.5-15.4,2.7l1.2,15.6c0.2,0,0.3-0.1,0.5-0.1
		c-0.1,0.1-0.3,0.2-0.4,0.2l-3.5,31.8c0.1,0.1,0.3,0.1,0.5,0.2c-0.2,0-0.3,0-0.5,0l-122.1-81.1c-26.5-7.3-59-9.3-87.1-3.8
		c-8.3,1.6-17,4.5-18.4,9c-1.2,3.9,3.6,7.7,10.1,9.7s14.3,2.6,21.9,2.9c86.6,3.3,165.9-23.6,251.3-31.6c12-1.1,24.7-1.8,36,0.4
		c6.2,1.2,12.2,3.8,12.5,7.2c0.6,5.5-12.8,8.3-23.5,8.6c-35,1-68.4-6.7-101.4-12.8c-51.1-9.4-104.7-15.4-158.8-17.5
		c-11.7-0.5-24.1-0.7-34.5,2c-10.5,2.8-17.8,9.5-12.8,14.9c5.1,5.5,19,6.9,30.8,6.9c76.2,0.3,143.2-23.9,214.3-38
		c23.8-4.7,51.7-8.2,73.9-1.8c3.2,0.9,6.2,2,8.2,3.6c7.2,5.5-2.5,13.5-14.9,15.5s-25.8,0.2-38.6-1.1c-25.5-2.5-52.1-2.6-76.5-7.1
		c-2.5-0.5-5-1-7.4-1.6l-16.4-20.4c0,0.2,0,0.3,0,0.5c-0.2,0-0.3,0-0.5,0l-23.3-7.1c-0.2,0.1-0.3,0.1-0.5,0.2c0,0.2,0,0.3,0,0.5
		l-33.6,8.8c-9.7,0.4-19.5,0.8-29.2,1.2l-27.1-5.2c-0.1,0.1-0.2,0.2-0.3,0.4c0,0.2,0.1,0.3,0.1,0.5l-46.3,7.4
		c-0.7,0-1.4,0.1-2.1,0.1c-12.6,0.6-24-6.1-24.5-12.6s8.1-12.5,19-15.8s23.9-4.3,36.6-4.8c52.8-1.9,105.7,4.8,158.5,2.7
		c10.2-0.4,20.3-1.1,30.5-1.9c30.3-2.2,60.6-4.4,90.9-6.6c22.6-1.6,48.5-2.8,65.4,5.1c6.8,3.2,10.1,9.9,1.8,12
		c-2.9,0.7-6.3,0.6-9.5,0.3c-26.6-1.8-52-6.5-77.3-11.1c-52.1-9.5-105.8-19.5-146.8-38.6c-5.9-2.7-11.7-5.9-13.1-9.9
		s3.9-8.8,11.8-8.8c4,0,7.7,1.2,10.8,2.5c8.2,3.5,15,8.9,12.5,14.2c-2.8,5.7-15.5,8.9-27,8.5s-21.8-3.5-31.6-6.4l-48.1-14.5
		l-107.9-35.2c-0.2,0-0.3,0-0.5,0.1c0.1-0.1,0.2-0.3,0.3-0.4l24.3-27.2c0.1-0.1,0.2-0.2,0.4-0.3c0.1,0.1,0.3,0.2,0.4,0.2l21.1,11.1
		c-0.1,0.1-0.2,0.3-0.3,0.4c-0.1-0.1-0.3-0.2-0.4-0.2l-8,9.8c0.2,0,0.3-0.1,0.5-0.1l-0.2,0.5l-8.1,20.1c-0.1,0.1-0.1,0.3-0.2,0.5
		c0.2,0,0.3-0.1,0.5-0.1l29.3,6.1c-0.2,0-0.3-0.1-0.5-0.1c0-0.2,0.1-0.3,0.1-0.5l4.7-14c0-0.2,0.1-0.3,0.1-0.5
		c-0.2,0-0.3,0.1-0.5,0.1l-1.5-45.3c0.1-0.1,0.2-0.3,0.3-0.4c0.1,0.1,0.2,0.3,0.3,0.4l12.8-48.3c-27.9-7.4-56.2-14.3-85-20.7
		c-8.2-1.8-17.1-3.6-25.8-2.6c-6.2,0.8-11.4,2.9-15.8,5.2c-14.9,7.9-23.3,19-22.9,30c0.3,6.1,3.8,12.6,13.3,16.3
		c9.6,3.7,23.2,3.5,34.3,1.2s20.4-6.4,29.6-10.3c26.5-11,55-20.8,85.1-29.1c12.3-3.4,26.8-6.6,39.9-4.2c9.7,1.8,16.5,6.5,19.8,11.5
		s3.5,10.4,3.7,15.7c0.1,5.8,0.1,11.7-4,17s-13.5,10-24.7,10.3s-20.9-3.7-29.6-7.3c-24.8-10.3-51.1-19.6-78.6-27.8
		c-4.7-1.4-9.7-2.8-15.1-2.9c-12.1-0.1-20.5,6.2-24.4,12.1c-3.7,5.6-5.5,11.6-5.4,17.5c0.1,4.2,2.5,9.4,10.4,10.6
		c6.4,1,13-1.1,18.4-3.1c19.1-7,38.2-14,57.2-21c10.8-4,24.2-8.1,36.5-6.2l32.4,2.3c0.2,0.1,0.3,0.1,0.5,0.1c0-0.2-0.1-0.3-0.1-0.5
		l-2.7-100.4c1.7-2.9,4.7-5.5,10.3-6.2c3.6-0.5,7.4,0,10.7,0.9c14.9,3.9,17.6,16.1,4.8,21.7c-9.1,3.9-22.2,4.1-33.8,2.9
		c-11.6-1.2-22.7-3.6-34.5-4.2c-9-0.5-19,0.3-25.5,3.5c-9.4,4.6-8.8,12.7-2.2,18.4s17.8,9.6,28.6,13.3c21,7.1,42.1,14.3,65.1,19.5
		c17.7,4,36.9,6.9,56.2,6c20.9-1,40.2-6.4,56.1-13.4s28.8-15.6,41.6-24.1c8.5,1.6,17,3.5,25.5,5.7l48,16.6c0.2,0.1,0.3,0.1,0.5,0.2
		c0.1-0.1,0.3-0.2,0.4-0.2l66.1-43.1c0.1-0.1,0.3-0.2,0.4-0.3c0.1,0.1,0.3,0.2,0.4,0.3l35.4,29.3c0.1,0.1,0.2,0.2,0.4,0.3h0.5
		l95.3-9.9c6.7,0.2,12.9,3,15.1,6.3c2.5,3.9,0.6,8.2-2.8,11.9c-2.6,2.9-6.2,5.7-11.3,7.5c-12.2,4.4-28.7,2.4-43.2,0.8
		c-14.5-1.7-32.2-2.4-41.9,3.3c-8.9,5.3-6.5,13.4-1.3,19.8c5.2,6.4,12.7,12.8,12.4,19.7c-0.2,7-13.2,14.4-25.9,11.9
		c-18.5-3.6-38.2-7.2-57.5-5.1c-19.3,2.2-36.2,12.8-28.9,22.2c5.2,6.7,20.5,10.1,34.5,9.8s27.1-3.5,39.7-6.6
		c10.8-2.7,21.6-5.4,32.4-8c8.3-2.1,17.2-4.2,26.4-3.7s18.4,4.6,16.8,9.3c-0.5,1.4-2,2.8-4.5,3.3c-4.5,1-9.7-1.2-10.5-3.7
		s1.3-4.9,3.3-7.2l8.1-9c3.3-3.7,7.2-7.7,14.5-9.4c7.5-1.7,16.8-0.2,22.7,2.7s8.8,7.1,10.3,11.3c0.9,2.4,0.7,5.5-3.6,6.7
		c-3.8,1-8.8-0.4-10.6-2.4s-1.2-4.3-0.1-6.5c3.7-7.4,14-14.3,28.4-16.1s31.8,3.1,33.2,10.6c0.7,3.8-5.1,8.3-12.2,7.3
		c-6.2-5.4,0.2-13,11.4-15.4s24.9,0,32.8,4.7s10.5,11.3,9.3,17.5s-5.9,12.1-11.2,17.6c-15.2,2.5-30.7,5.4-46,8.6l28.1,28
		c0.2,0,0.3,0.1,0.5,0.1c-0.2,0-0.3,0.1-0.5,0.1l-4.8,46c1.5,0.4,2.9,0.9,4.3,1.4c2.7,1,5.3,2.1,6.5,3.7c2.3,3-1.5,6.5-6.9,8.1
		s-12,1.7-18.2,1.7c-36-0.2-72-4.2-104.9-11.7c-3.5-5.5-5.1-10.6-7.1-16.3c-2-5.7-7.5-11.8-18-13.9c-13.3-2.7-27.8,1.8-38.8,6.4
		c-2.1,0.9-4.4,1.9-7.1,2c-1.8,0.1-3.5-0.2-5.2-0.6l-46.8-11.1c-0.2,0-0.3-0.1-0.5-0.1c0.1-0.1,0.2-0.3,0.3-0.4l-25.7-35.8
		c-2.9-0.3-5.8-0.5-8.8-0.4c-7.3,0.2-13.7,1.6-19.5,3.7l-23.9,14.6c-0.1,0.1-0.2,0.2-0.4,0.3c-0.2,0-0.3,0-0.5-0.1L492.7,237
		c1.3,0.5,2.4,1.1,3.3,1.7c6.3,4.5,5.7,10.5,4.5,16c-1.1,5.5-2.5,11.3,2.7,16.2c8.4,7.9,28.9,9.1,46.2,10.6
		c48.9,4.3,93.9,19.1,122,40c11.7,8.7,20.5,18.3,32.2,27s26.9,16.7,46.5,20c24.8,4.2,52,0.2,77.8,2c22.3,1.6,43.3,7.8,57.2,16.9
		c14.2,9.3,22.2,21.9,42.4,27.5c15.5,4.4,32.8-1.1,49-5c16.1-3.8,37.5-6.3,49.8,0.3c9.8,5.2,5.1,16-8.8,16.7
		c-7.7,0.4-15-2.2-19.2-5.5c-12.7-10-1.2-23.8,16-31.9c17.2-8.1,39.4-13,55.9-21.5c6.9-3.6,12.9-9.2,7.4-13.4
		c-2.4-1.8-6.5-2.9-10.5-3.7c-14.5-2.7-30.9-2.5-45.2,0.5c-10.1,2.2-18.9,5.7-28.8,8c-9.9,2.4-22,3.4-31.5,0.7
		c-12.2-3.6-14.3-13.7-3.4-18.2c10.9-4.5,30.5-0.7,32.3,6.4c1.6,6.6-9.9,12.1-21.8,14.7c-18.7,4-44.1,2.4-54-6.7
		c-2.9-2.6-4.2-5.6-4.5-8.6c-1.5-13.4,17.1-25.8,40.5-31.6c8.8-2.2,18.1-3.6,27.7-4.5l48.5-0.2c0.2,0,0.3,0,0.5,0L784,245.2
		c-0.2,0-0.3,0.1-0.5,0.1c0.2,0,0.3,0.1,0.5,0.1l25.6,29.4c-8.4,2.2-16.7,4.6-24.9,7l-24.2,7.4c-0.2,0-0.3,0.1-0.5,0.1
		c0.1,0.1,0.3,0.2,0.4,0.2"/>
</g>
<g id="Layer_2_00000114040510526715409490000004884210270173929658_">
	<path class="st2" d="M471.1,720.4L471.1,720.4c0,2.2-1.8,3.9-3.9,3.9h-5.5c-2.2,0-3.9,1.8-3.9,3.9v5.5c0,2.2-1.8,3.9-3.9,3.9l0,0
		c-2.2,0-3.9-1.8-3.9-3.9v-5.5c0-2.2-1.8-3.9-3.9-3.9h-5.5c-2.2,0-3.9-1.8-3.9-3.9l0,0c0-2.2,1.8-3.9,3.9-3.9h5.5
		c2.2,0,3.9-1.8,3.9-3.9V707c0-2.2,1.8-3.9,3.9-3.9l0,0c2.2,0,3.9,1.8,3.9,3.9v5.5c0,2.2,1.8,3.9,3.9,3.9h5.5
		C469.3,716.5,471.1,718.2,471.1,720.4z"/>
	<path class="st2" d="M498.5,623.9L498.5,623.9c0,2.2-1.8,3.9-3.9,3.9H489c-2.2,0-3.9,1.8-3.9,3.9v5.5c0,2.2-1.8,3.9-3.9,3.9l0,0
		c-2.2,0-3.9-1.8-3.9-3.9v-5.5c0-2.2-1.8-3.9-3.9-3.9h-5.5c-2.2,0-3.9-1.8-3.9-3.9l0,0c0-2.2,1.8-3.9,3.9-3.9h5.5
		c2.2,0,3.9-1.8,3.9-3.9v-5.5c0-2.2,1.8-3.9,3.9-3.9l0,0c2.2,0,3.9,1.8,3.9,3.9v5.5c0,2.2,1.8,3.9,3.9,3.9h5.5
		C496.7,620,498.5,621.8,498.5,623.9z"/>
	<path class="st2" d="M459.5,553.8L459.5,553.8c0,2.2-1.8,3.9-3.9,3.9H450c-2.2,0-3.9,1.8-3.9,3.9v5.5c0,2.2-1.8,3.9-3.9,3.9l0,0
		c-2.2,0-3.9-1.8-3.9-3.9v-5.5c0-2.2-1.8-3.9-3.9-3.9h-5.5c-2.2,0-3.9-1.8-3.9-3.9l0,0c0-2.2,1.8-3.9,3.9-3.9h5.5
		c2.2,0,3.9-1.8,3.9-3.9v-5.5c0-2.2,1.8-3.9,3.9-3.9l0,0c2.2,0,3.9,1.8,3.9,3.9v5.5c0,2.2,1.8,3.9,3.9,3.9h5.5
		C457.7,549.9,459.5,551.6,459.5,553.8z"/>
	<path class="st2" d="M394.3,515.9L394.3,515.9c0,2.2-1.8,3.9-3.9,3.9h-5.5c-2.2,0-3.9,1.8-3.9,3.9v5.5c0,2.2-1.8,3.9-3.9,3.9l0,0
		c-2.2,0-3.9-1.8-3.9-3.9v-5.5c0-2.2-1.8-3.9-3.9-3.9h-5.5c-2.2,0-3.9-1.8-3.9-3.9l0,0c0-2.2,1.8-3.9,3.9-3.9h5.5
		c2.2,0,3.9-1.8,3.9-3.9v-5.5c0-2.2,1.8-3.9,3.9-3.9l0,0c2.2,0,3.9,1.8,3.9,3.9v5.5c0,2.2,1.8,3.9,3.9,3.9h5.5
		C392.5,512,394.3,513.7,394.3,515.9z"/>
	<path class="st2" d="M336.9,482.2L336.9,482.2c0,2.2-1.8,3.9-3.9,3.9h-5.5c-2.2,0-3.9,1.8-3.9,3.9v5.5c0,2.2-1.8,3.9-3.9,3.9l0,0
		c-2.2,0-3.9-1.8-3.9-3.9V490c0-2.2-1.8-3.9-3.9-3.9h-5.5c-2.2,0-3.9-1.8-3.9-3.9l0,0c0-2.2,1.8-3.9,3.9-3.9h5.5
		c2.2,0,3.9-1.8,3.9-3.9v-5.5c0-2.2,1.8-3.9,3.9-3.9l0,0c2.2,0,3.9,1.8,3.9,3.9v5.5c0,2.2,1.8,3.9,3.9,3.9h5.5
		C335.1,478.3,336.9,480,336.9,482.2z"/>
	<path class="st2" d="M298.3,416.3L298.3,416.3c0,2.2-1.8,3.9-3.9,3.9h-5.5c-2.2,0-3.9,1.8-3.9,3.9v5.5c0,2.2-1.8,3.9-3.9,3.9l0,0
		c-2.2,0-3.9-1.8-3.9-3.9v-5.5c0-2.2-1.8-3.9-3.9-3.9h-5.5c-2.2,0-3.9-1.8-3.9-3.9l0,0c0-2.2,1.8-3.9,3.9-3.9h5.5
		c2.2,0,3.9-1.8,3.9-3.9V403c0-2.2,1.8-3.9,3.9-3.9l0,0c2.2,0,3.9,1.8,3.9,3.9v5.5c0,2.2,1.8,3.9,3.9,3.9h5.5
		C296.5,412.4,298.3,414.1,298.3,416.3z"/>
	<path class="st2" d="M378.4,395.4L378.4,395.4c0,2.2-1.8,3.9-3.9,3.9H369c-2.2,0-3.9,1.8-3.9,3.9v5.5c0,2.2-1.8,3.9-3.9,3.9l0,0
		c-2.2,0-3.9-1.8-3.9-3.9v-5.5c0-2.2-1.8-3.9-3.9-3.9h-5.5c-2.2,0-3.9-1.8-3.9-3.9l0,0c0-2.2,1.8-3.9,3.9-3.9h5.5
		c2.2,0,3.9-1.8,3.9-3.9v-5.5c0-2.2,1.8-3.9,3.9-3.9l0,0c2.2,0,3.9,1.8,3.9,3.9v5.5c0,2.2,1.8,3.9,3.9,3.9h5.5
		C376.6,391.5,378.4,393.2,378.4,395.4z"/>
	<path class="st2" d="M330.9,339.8L330.9,339.8c0,2.2-1.8,3.9-3.9,3.9h-5.5c-2.2,0-3.9,1.8-3.9,3.9v5.5c0,2.2-1.8,3.9-3.9,3.9l0,0
		c-2.2,0-3.9-1.8-3.9-3.9v-5.5c0-2.2-1.8-3.9-3.9-3.9h-5.5c-2.2,0-3.9-1.8-3.9-3.9l0,0c0-2.2,1.8-3.9,3.9-3.9h5.5
		c2.2,0,3.9-1.8,3.9-3.9v-5.5c0-2.2,1.8-3.9,3.9-3.9l0,0c2.2,0,3.9,1.8,3.9,3.9v5.5c0,2.2,1.8,3.9,3.9,3.9h5.5
		C329.1,335.9,330.9,337.6,330.9,339.8z"/>
	<path class="st2" d="M417,294.8L417,294.8c0,2.2-1.8,3.9-3.9,3.9h-5.5c-2.2,0-3.9,1.8-3.9,3.9v5.5c0,2.2-1.8,3.9-3.9,3.9l0,0
		c-2.2,0-3.9-1.8-3.9-3.9v-5.5c0-2.2-1.8-3.9-3.9-3.9h-5.5c-2.2,0-3.9-1.8-3.9-3.9l0,0c0-2.2,1.8-3.9,3.9-3.9h5.5
		c2.2,0,3.9-1.8,3.9-3.9v-5.5c0-2.2,1.8-3.9,3.9-3.9l0,0c2.2,0,3.9,1.8,3.9,3.9v5.5c0,2.2,1.8,3.9,3.9,3.9h5.5
		C415.2,290.9,417,292.6,417,294.8z"/>
	<path class="st2" d="M458.1,385.8L458.1,385.8c0,2.2-1.8,3.9-3.9,3.9h-5.5c-2.2,0-3.9,1.8-3.9,3.9v5.5c0,2.2-1.8,3.9-3.9,3.9l0,0
		c-2.2,0-3.9-1.8-3.9-3.9v-5.5c0-2.2-1.8-3.9-3.9-3.9h-5.5c-2.2,0-3.9-1.8-3.9-3.9l0,0c0-2.2,1.8-3.9,3.9-3.9h5.5
		c2.2,0,3.9-1.8,3.9-3.9v-5.5c0-2.2,1.8-3.9,3.9-3.9l0,0c2.2,0,3.9,1.8,3.9,3.9v5.5c0,2.2,1.8,3.9,3.9,3.9h5.5
		C456.3,381.9,458.1,383.7,458.1,385.8z"/>
	<path class="st2" d="M526.4,451L526.4,451c0,2.2-1.8,3.9-3.9,3.9H517c-2.2,0-3.9,1.8-3.9,3.9v5.5c0,2.2-1.8,3.9-3.9,3.9l0,0
		c-2.2,0-3.9-1.8-3.9-3.9v-5.5c0-2.2-1.8-3.9-3.9-3.9h-5.5c-2.2,0-3.9-1.8-3.9-3.9l0,0c0-2.2,1.8-3.9,3.9-3.9h5.5
		c2.2,0,3.9-1.8,3.9-3.9v-5.5c0-2.2,1.8-3.9,3.9-3.9l0,0c2.2,0,3.9,1.8,3.9,3.9v5.5c0,2.2,1.8,3.9,3.9,3.9h5.5
		C524.7,447.1,526.4,448.9,526.4,451z"/>
	<path class="st2" d="M537.8,408.7L537.8,408.7c0,2.2-1.8,3.9-3.9,3.9h-5.5c-2.2,0-3.9,1.8-3.9,3.9v5.5c0,2.2-1.8,3.9-3.9,3.9l0,0
		c-2.2,0-3.9-1.8-3.9-3.9v-5.5c0-2.2-1.8-3.9-3.9-3.9h-5.5c-2.2,0-3.9-1.8-3.9-3.9l0,0c0-2.2,1.8-3.9,3.9-3.9h5.5
		c2.2,0,3.9-1.8,3.9-3.9v-5.5c0-2.2,1.8-3.9,3.9-3.9l0,0c2.2,0,3.9,1.8,3.9,3.9v5.5c0,2.2,1.8,3.9,3.9,3.9h5.5
		C536,404.8,537.8,406.5,537.8,408.7z"/>
	<path class="st2" d="M566.5,281.7L566.5,281.7c0,2.2-1.8,3.9-3.9,3.9H557c-2.2,0-3.9,1.8-3.9,3.9v5.5c0,2.2-1.8,3.9-3.9,3.9l0,0
		c-2.2,0-3.9-1.8-3.9-3.9v-5.5c0-2.2-1.8-3.9-3.9-3.9h-5.5c-2.2,0-3.9-1.8-3.9-3.9l0,0c0-2.2,1.8-3.9,3.9-3.9h5.5
		c2.2,0,3.9-1.8,3.9-3.9v-5.5c0-2.2,1.8-3.9,3.9-3.9l0,0c2.2,0,3.9,1.8,3.9,3.9v5.5c0,2.2,1.8,3.9,3.9,3.9h5.5
		C564.7,277.8,566.5,279.5,566.5,281.7z"/>
	<path class="st2" d="M631,333.4L631,333.4c0,2.2-1.8,3.9-3.9,3.9h-5.5c-2.2,0-3.9,1.8-3.9,3.9v5.5c0,2.2-1.8,3.9-3.9,3.9l0,0
		c-2.2,0-3.9-1.8-3.9-3.9v-5.5c0-2.2-1.8-3.9-3.9-3.9h-5.5c-2.2,0-3.9-1.8-3.9-3.9l0,0c0-2.2,1.8-3.9,3.9-3.9h5.5
		c2.2,0,3.9-1.8,3.9-3.9v-5.5c0-2.2,1.8-3.9,3.9-3.9l0,0c2.2,0,3.9,1.8,3.9,3.9v5.5c0,2.2,1.8,3.9,3.9,3.9h5.5
		C629.2,329.5,631,331.2,631,333.4z"/>
	<path class="st2" d="M693.7,287L693.7,287c0,2.2-1.8,3.9-3.9,3.9h-5.5c-2.2,0-3.9,1.8-3.9,3.9v5.5c0,2.2-1.8,3.9-3.9,3.9l0,0
		c-2.2,0-3.9-1.8-3.9-3.9v-5.5c0-2.2-1.8-3.9-3.9-3.9h-5.5c-2.2,0-3.9-1.8-3.9-3.9l0,0c0-2.2,1.8-3.9,3.9-3.9h5.5
		c2.2,0,3.9-1.8,3.9-3.9v-5.5c0-2.2,1.8-3.9,3.9-3.9l0,0c2.2,0,3.9,1.8,3.9,3.9v5.5c0,2.2,1.8,3.9,3.9,3.9h5.5
		C691.9,283.1,693.7,284.8,693.7,287z"/>
	<path class="st2" d="M685.9,192.7L685.9,192.7c0,2.2-1.8,3.9-3.9,3.9h-5.5c-2.2,0-3.9,1.8-3.9,3.9v5.5c0,2.2-1.8,3.9-3.9,3.9l0,0
		c-2.2,0-3.9-1.8-3.9-3.9v-5.5c0-2.2-1.8-3.9-3.9-3.9h-5.5c-2.2,0-3.9-1.8-3.9-3.9l0,0c0-2.2,1.8-3.9,3.9-3.9h5.5
		c2.2,0,3.9-1.8,3.9-3.9v-5.5c0-2.2,1.8-3.9,3.9-3.9l0,0c2.2,0,3.9,1.8,3.9,3.9v5.5c0,2.2,1.8,3.9,3.9,3.9h5.5
		C684.1,188.8,685.9,190.6,685.9,192.7z"/>
	<path class="st2" d="M685.9,192.7L685.9,192.7c0,2.2-1.8,3.9-3.9,3.9h-5.5c-2.2,0-3.9,1.8-3.9,3.9v5.5c0,2.2-1.8,3.9-3.9,3.9l0,0
		c-2.2,0-3.9-1.8-3.9-3.9v-5.5c0-2.2-1.8-3.9-3.9-3.9h-5.5c-2.2,0-3.9-1.8-3.9-3.9l0,0c0-2.2,1.8-3.9,3.9-3.9h5.5
		c2.2,0,3.9-1.8,3.9-3.9v-5.5c0-2.2,1.8-3.9,3.9-3.9l0,0c2.2,0,3.9,1.8,3.9,3.9v5.5c0,2.2,1.8,3.9,3.9,3.9h5.5
		C684.1,188.8,685.9,190.6,685.9,192.7z"/>
	<path class="st2" d="M794.6,187.8L794.6,187.8c0,2.2-1.8,3.9-3.9,3.9h-5.5c-2.2,0-3.9,1.8-3.9,3.9v5.5c0,2.2-1.8,3.9-3.9,3.9l0,0
		c-2.2,0-3.9-1.8-3.9-3.9v-5.5c0-2.2-1.8-3.9-3.9-3.9H764c-2.2,0-3.9-1.8-3.9-3.9l0,0c0-2.2,1.8-3.9,3.9-3.9h5.5
		c2.2,0,3.9-1.8,3.9-3.9v-5.5c0-2.2,1.8-3.9,3.9-3.9l0,0c2.2,0,3.9,1.8,3.9,3.9v5.5c0,2.2,1.8,3.9,3.9,3.9h5.5
		C792.9,183.9,794.6,185.6,794.6,187.8z"/>
	<path class="st2" d="M740.4,122.6L740.4,122.6c0,2.2-1.8,3.9-3.9,3.9H731c-2.2,0-3.9,1.8-3.9,3.9v5.5c0,2.2-1.8,3.9-3.9,3.9l0,0
		c-2.2,0-3.9-1.8-3.9-3.9v-5.5c0-2.2-1.8-3.9-3.9-3.9h-5.5c-2.2,0-3.9-1.8-3.9-3.9l0,0c0-2.2,1.8-3.9,3.9-3.9h5.5
		c2.2,0,3.9-1.8,3.9-3.9v-5.5c0-2.2,1.8-3.9,3.9-3.9l0,0c2.2,0,3.9,1.8,3.9,3.9v5.5c0,2.2,1.8,3.9,3.9,3.9h5.5
		C738.7,118.7,740.4,120.4,740.4,122.6z"/>
	<path class="st2" d="M475.1,147.8L475.1,147.8c0,2.2-1.8,3.9-3.9,3.9h-5.5c-2.2,0-3.9,1.8-3.9,3.9v5.5c0,2.2-1.8,3.9-3.9,3.9l0,0
		c-2.2,0-3.9-1.8-3.9-3.9v-5.5c0-2.2-1.8-3.9-3.9-3.9h-5.5c-2.2,0-3.9-1.8-3.9-3.9l0,0c0-2.2,1.8-3.9,3.9-3.9h5.5
		c2.2,0,3.9-1.8,3.9-3.9v-5.5c0-2.2,1.8-3.9,3.9-3.9l0,0c2.2,0,3.9,1.8,3.9,3.9v5.5c0,2.2,1.8,3.9,3.9,3.9h5.5
		C473.3,143.8,475.1,145.6,475.1,147.8z"/>
	<path class="st2" d="M357.5,149.4L357.5,149.4c0,2.2-1.8,3.9-3.9,3.9H348c-2.2,0-3.9,1.8-3.9,3.9v5.5c0,2.2-1.8,3.9-3.9,3.9l0,0
		c-2.2,0-3.9-1.8-3.9-3.9v-5.5c0-2.2-1.8-3.9-3.9-3.9h-5.5c-2.2,0-3.9-1.8-3.9-3.9l0,0c0-2.2,1.8-3.9,3.9-3.9h5.5
		c2.2,0,3.9-1.8,3.9-3.9v-5.5c0-2.2,1.8-3.9,3.9-3.9l0,0c2.2,0,3.9,1.8,3.9,3.9v5.5c0,2.2,1.8,3.9,3.9,3.9h5.5
		C355.7,145.5,357.5,147.3,357.5,149.4z"/>
	<path class="st2" d="M374,97.3L374,97.3c0,2.2-1.8,3.9-3.9,3.9h-5.5c-2.2,0-3.9,1.8-3.9,3.9v5.5c0,2.2-1.8,3.9-3.9,3.9l0,0
		c-2.2,0-3.9-1.8-3.9-3.9v-5.5c0-2.2-1.8-3.9-3.9-3.9h-5.5c-2.2,0-3.9-1.8-3.9-3.9l0,0c0-2.2,1.8-3.9,3.9-3.9h5.5
		c2.2,0,3.9-1.8,3.9-3.9V84c0-2.2,1.8-3.9,3.9-3.9l0,0c2.2,0,3.9,1.8,3.9,3.9v5.5c0,2.2,1.8,3.9,3.9,3.9h5.5
		C372.2,93.4,374,95.1,374,97.3z"/>
	<path class="st2" d="M231.6,144.5L231.6,144.5c0,2.2-1.8,3.9-3.9,3.9h-5.5c-2.2,0-3.9,1.8-3.9,3.9v5.5c0,2.2-1.8,3.9-3.9,3.9l0,0
		c-2.2,0-3.9-1.8-3.9-3.9v-5.5c0-2.2-1.8-3.9-3.9-3.9H201c-2.2,0-3.9-1.8-3.9-3.9l0,0c0-2.2,1.8-3.9,3.9-3.9h5.5
		c2.2,0,3.9-1.8,3.9-3.9v-5.5c0-2.2,1.8-3.9,3.9-3.9l0,0c2.2,0,3.9,1.8,3.9,3.9v5.5c0,2.2,1.8,3.9,3.9,3.9h5.5
		C229.9,140.6,231.6,142.3,231.6,144.5z"/>
	<path class="st2" d="M232.7,204.5L232.7,204.5c0,2.2-1.8,3.9-3.9,3.9h-5.5c-2.2,0-3.9,1.8-3.9,3.9v5.5c0,2.2-1.8,3.9-3.9,3.9l0,0
		c-2.2,0-3.9-1.8-3.9-3.9v-5.5c0-2.2-1.8-3.9-3.9-3.9h-5.5c-2.2,0-3.9-1.8-3.9-3.9l0,0c0-2.2,1.8-3.9,3.9-3.9h5.5
		c2.2,0,3.9-1.8,3.9-3.9v-5.5c0-2.2,1.8-3.9,3.9-3.9l0,0c2.2,0,3.9,1.8,3.9,3.9v5.5c0,2.2,1.8,3.9,3.9,3.9h5.5
		C230.9,200.6,232.7,202.4,232.7,204.5z"/>
	<path class="st2" d="M251,235.7L251,235.7c0,2.2-1.8,3.9-3.9,3.9h-5.5c-2.2,0-3.9,1.8-3.9,3.9v5.5c0,2.2-1.8,3.9-3.9,3.9l0,0
		c-2.2,0-3.9-1.8-3.9-3.9v-5.5c0-2.2-1.8-3.9-3.9-3.9h-5.5c-2.2,0-3.9-1.8-3.9-3.9l0,0c0-2.2,1.8-3.9,3.9-3.9h5.5
		c2.2,0,3.9-1.8,3.9-3.9v-5.5c0-2.2,1.8-3.9,3.9-3.9l0,0c2.2,0,3.9,1.8,3.9,3.9v5.5c0,2.2,1.8,3.9,3.9,3.9h5.5
		C249.3,231.8,251,233.5,251,235.7z"/>
	<path class="st2" d="M855.7,242.9L855.7,242.9c0,2.2-1.8,3.9-3.9,3.9h-5.5c-2.2,0-3.9,1.8-3.9,3.9v5.5c0,2.2-1.8,3.9-3.9,3.9l0,0
		c-2.2,0-3.9-1.8-3.9-3.9v-5.5c0-2.2-1.8-3.9-3.9-3.9h-5.5c-2.2,0-3.9-1.8-3.9-3.9l0,0c0-2.2,1.8-3.9,3.9-3.9h5.5
		c2.2,0,3.9-1.8,3.9-3.9v-5.5c0-2.2,1.8-3.9,3.9-3.9l0,0c2.2,0,3.9,1.8,3.9,3.9v5.5c0,2.2,1.8,3.9,3.9,3.9h5.5
		C853.9,239,855.7,240.7,855.7,242.9z"/>
	<path class="st2" d="M936.2,282.1L936.2,282.1c0,2.2-1.8,3.9-3.9,3.9h-5.5c-2.2,0-3.9,1.8-3.9,3.9v5.5c0,2.2-1.8,3.9-3.9,3.9l0,0
		c-2.2,0-3.9-1.8-3.9-3.9v-5.5c0-2.2-1.8-3.9-3.9-3.9h-5.5c-2.2,0-3.9-1.8-3.9-3.9l0,0c0-2.2,1.8-3.9,3.9-3.9h5.5
		c2.2,0,3.9-1.8,3.9-3.9v-5.5c0-2.2,1.8-3.9,3.9-3.9l0,0c2.2,0,3.9,1.8,3.9,3.9v5.5c0,2.2,1.8,3.9,3.9,3.9h5.5
		C934.5,278.2,936.2,280,936.2,282.1z"/>
	<path class="st2" d="M844.6,370.7L844.6,370.7c0,2.2-1.8,3.9-3.9,3.9h-5.5c-2.2,0-3.9,1.8-3.9,3.9v5.5c0,2.2-1.8,3.9-3.9,3.9l0,0
		c-2.2,0-3.9-1.8-3.9-3.9v-5.5c0-2.2-1.8-3.9-3.9-3.9H814c-2.2,0-3.9-1.8-3.9-3.9l0,0c0-2.2,1.8-3.9,3.9-3.9h5.5
		c2.2,0,3.9-1.8,3.9-3.9v-5.5c0-2.2,1.8-3.9,3.9-3.9l0,0c2.2,0,3.9,1.8,3.9,3.9v5.5c0,2.2,1.8,3.9,3.9,3.9h5.5
		C842.8,366.8,844.6,368.5,844.6,370.7z"/>
	<path class="st2" d="M976.2,365.4L976.2,365.4c0,2.2-1.8,3.9-3.9,3.9h-5.5c-2.2,0-3.9,1.8-3.9,3.9v5.5c0,2.2-1.8,3.9-3.9,3.9l0,0
		c-2.2,0-3.9-1.8-3.9-3.9v-5.5c0-2.2-1.8-3.9-3.9-3.9h-5.5c-2.2,0-3.9-1.8-3.9-3.9l0,0c0-2.2,1.8-3.9,3.9-3.9h5.5
		c2.2,0,3.9-1.8,3.9-3.9v-5.5c0-2.2,1.8-3.9,3.9-3.9l0,0c2.2,0,3.9,1.8,3.9,3.9v5.5c0,2.2,1.8,3.9,3.9,3.9h5.5
		C974.5,361.5,976.2,363.3,976.2,365.4z"/>
	<path class="st2" d="M1029.5,391.6L1029.5,391.6c0,2.2-1.8,3.9-3.9,3.9h-5.5c-2.2,0-3.9,1.8-3.9,3.9v5.5c0,2.2-1.8,3.9-3.9,3.9l0,0
		c-2.2,0-3.9-1.8-3.9-3.9v-5.5c0-2.2-1.8-3.9-3.9-3.9H999c-2.2,0-3.9-1.8-3.9-3.9l0,0c0-2.2,1.8-3.9,3.9-3.9h5.5
		c2.2,0,3.9-1.8,3.9-3.9v-5.5c0-2.2,1.8-3.9,3.9-3.9l0,0c2.2,0,3.9,1.8,3.9,3.9v5.5c0,2.2,1.8,3.9,3.9,3.9h5.5
		C1027.8,387.6,1029.5,389.4,1029.5,391.6z"/>
</g>
<path class="st2" d="M58.1,33.9L58.1,33.9c0,2.2-1.8,3.9-3.9,3.9h-5.5c-2.2,0-3.9,1.8-3.9,3.9v5.5c0,2.2-1.8,3.9-3.9,3.9l0,0
	c-2.2,0-3.9-1.8-3.9-3.9v-5.5c0-2.2-1.8-3.9-3.9-3.9h-5.6c-2.2,0-3.9-1.8-3.9-3.9l0,0c0-2.2,1.8-3.9,3.9-3.9H33
	c2.2,0,3.9-1.8,3.9-3.9v-5.5c0-2.2,1.8-3.9,3.9-3.9l0,0c2.2,0,3.9,1.8,3.9,3.9v5.5c0,2.2,1.8,3.9,3.9,3.9h5.5
	C56.4,30,58.1,31.7,58.1,33.9z"/>
</svg>
