<?xml version="1.0" encoding="UTF-8"?>
<svg id="Layer_2" data-name="Layer 2" xmlns="http://www.w3.org/2000/svg" viewBox="0 0 1407.31 783.58">
  <defs>
    <style>
      .cls-1 {
        fill: red;
        stroke-width: 0px;
      }
    </style>
  </defs>
  <g id="Layer_1-2" data-name="Layer 1">
    <g id="Layer_1-2" data-name="Layer 1-2">
      <path class="cls-1" d="m455.21,137.21h0c0,4.95-4.05,8.77-8.77,8.77h-12.37c-4.95,0-8.77,4.05-8.77,8.77v12.37c0,4.95-4.05,8.77-8.77,8.77h0c-4.95,0-8.77-4.05-8.77-8.77v-12.37c0-4.95-4.05-8.77-8.77-8.77h-12.59c-4.95,0-8.77-4.05-8.77-8.77h0c0-4.95,4.05-8.77,8.77-8.77h12.37c4.95,0,8.77-4.05,8.77-8.77v-12.37c0-4.95,4.05-8.77,8.77-8.77h0c4.95,0,8.77,4.05,8.77,8.77v12.37c0,4.95,4.05,8.77,8.77,8.77h12.37c5.17,0,8.99,3.82,8.99,8.77Z"/>
    </g>
    <g id="Layer_1-2-2" data-name="Layer 1-2">
      <path class="cls-1" d="m884.93,214.57h0c0,4.95-4.05,8.77-8.77,8.77h-12.37c-4.95,0-8.77,4.05-8.77,8.77v12.37c0,4.95-4.05,8.77-8.77,8.77h0c-4.95,0-8.77-4.05-8.77-8.77v-12.37c0-4.95-4.05-8.77-8.77-8.77h-12.59c-4.95,0-8.77-4.05-8.77-8.77h0c0-4.95,4.05-8.77,8.77-8.77h12.37c4.95,0,8.77-4.05,8.77-8.77v-12.37c0-4.95,4.05-8.77,8.77-8.77h0c4.95,0,8.77,4.05,8.77,8.77v12.37c0,4.95,4.05,8.77,8.77,8.77h12.37c5.17,0,8.99,3.82,8.99,8.77Z"/>
    </g>
    <g id="Layer_1-2-3" data-name="Layer 1-2">
      <path class="cls-1" d="m77.58,744.91h0c0,4.95-4.05,8.77-8.77,8.77h-12.37c-4.95,0-8.77,4.05-8.77,8.77v12.37c0,4.95-4.05,8.77-8.77,8.77h0c-4.95,0-8.77-4.05-8.77-8.77v-12.37c0-4.95-4.05-8.77-8.77-8.77h-12.59c-4.95,0-8.77-4.05-8.77-8.77h0c0-4.95,4.05-8.77,8.77-8.77h12.37c4.95,0,8.77-4.05,8.77-8.77v-12.37c0-4.95,4.05-8.77,8.77-8.77h0c4.95,0,8.77,4.05,8.77,8.77v12.37c0,4.95,4.05,8.77,8.77,8.77h12.37c5.17,0,8.99,3.82,8.99,8.77Z"/>
    </g>
    <g id="Layer_1-2-4" data-name="Layer 1-2">
      <path class="cls-1" d="m1407.31,602.09h0c0,4.95-4.05,8.77-8.77,8.77h-12.37c-4.95,0-8.77,4.05-8.77,8.77v12.37c0,4.95-4.05,8.77-8.77,8.77h0c-4.95,0-8.77-4.05-8.77-8.77v-12.37c0-4.95-4.05-8.77-8.77-8.77h-12.59c-4.95,0-8.77-4.05-8.77-8.77h0c0-4.95,4.05-8.77,8.77-8.77h12.37c4.95,0,8.77-4.05,8.77-8.77v-12.37c0-4.95,4.05-8.77,8.77-8.77h0c4.95,0,8.77,4.05,8.77,8.77v12.37c0,4.95,4.05,8.77,8.77,8.77h12.37c5.17,0,8.99,3.82,8.99,8.77Z"/>
    </g>
    <g id="Layer_1-2-5" data-name="Layer 1-2">
      <path class="cls-1" d="m256.04,319.29h0c0,4.95-4.05,8.77-8.77,8.77h-12.37c-4.95,0-8.77,4.05-8.77,8.77v12.37c0,4.95-4.05,8.77-8.77,8.77h0c-4.95,0-8.77-4.05-8.77-8.77v-12.37c0-4.95-4.05-8.77-8.77-8.77h-12.59c-4.95,0-8.77-4.05-8.77-8.77h0c0-4.95,4.05-8.77,8.77-8.77h12.37c4.95,0,8.77-4.05,8.77-8.77v-12.37c0-4.95,4.05-8.77,8.77-8.77h0c4.95,0,8.77,4.05,8.77,8.77v12.37c0,4.95,4.05,8.77,8.77,8.77h12.37c5.17,0,8.99,3.82,8.99,8.77Z"/>
    </g>
    <g id="Layer_1-2-6" data-name="Layer 1-2">
      <path class="cls-1" d="m352.1,38.68h0c0,4.95-4.05,8.77-8.77,8.77h-12.37c-4.95,0-8.77,4.05-8.77,8.77v12.37c0,4.95-4.05,8.77-8.77,8.77h0c-4.95,0-8.77-4.05-8.77-8.77v-12.37c0-4.95-4.05-8.77-8.77-8.77h-12.59c-4.95,0-8.77-4.05-8.77-8.77h0c0-4.95,4.05-8.77,8.77-8.77h12.37c4.95,0,8.77-4.05,8.77-8.77v-12.37c0-4.95,4.05-8.77,8.77-8.77h0c4.95,0,8.77,4.05,8.77,8.77v12.37c0,4.95,4.05,8.77,8.77,8.77h12.37c5.17,0,8.99,3.82,8.99,8.77Z"/>
    </g>
    <g id="Layer_1-2-7" data-name="Layer 1-2">
      <path class="cls-1" d="m1356.12,679.45h0c0,4.95-4.05,8.77-8.77,8.77h-12.37c-4.95,0-8.77,4.05-8.77,8.77v12.37c0,4.95-4.05,8.77-8.77,8.77h0c-4.95,0-8.77-4.05-8.77-8.77v-12.37c0-4.95-4.05-8.77-8.77-8.77h-12.59c-4.95,0-8.77-4.05-8.77-8.77h0c0-4.95,4.05-8.77,8.77-8.77h12.37c4.95,0,8.77-4.05,8.77-8.77v-12.37c0-4.95,4.05-8.77,8.77-8.77h0c4.95,0,8.77,4.05,8.77,8.77v12.37c0,4.95,4.05,8.77,8.77,8.77h12.37c5.17,0,8.99,3.82,8.99,8.77Z"/>
    </g>
    <g id="Layer_1-2-8" data-name="Layer 1-2">
      <path class="cls-1" d="m1139.34,640.77h0c0,4.95-4.05,8.77-8.77,8.77h-12.37c-4.95,0-8.77,4.05-8.77,8.77v12.37c0,4.95-4.05,8.77-8.77,8.77h0c-4.95,0-8.77-4.05-8.77-8.77v-12.37c0-4.95-4.05-8.77-8.77-8.77h-12.59c-4.95,0-8.77-4.05-8.77-8.77h0c0-4.95,4.05-8.77,8.77-8.77h12.37c4.95,0,8.77-4.05,8.77-8.77v-12.37c0-4.95,4.05-8.77,8.77-8.77h0c4.95,0,8.77,4.05,8.77,8.77v12.37c0,4.95,4.05,8.77,8.77,8.77h12.37c5.17,0,8.99,3.82,8.99,8.77Z"/>
    </g>
  </g>
</svg>